<svg xmlns="http://www.w3.org/2000/svg" viewBox="0 0 100 125">
  <path style="text-indent:0;text-transform:none;block-progression:tb" d="M29.76356 11.02657c-5.856 0-11.742 2.32262-16.1562 7-8.8286 9.35461-8.8175 24.32648 0 33.68755l34.1875 36.3125a3.0003 3.0003 0 004.375 0c11.409-12.0892 22.8096-24.192 34.2187-36.2813 8.8285-9.35476 8.8285-24.3015 0-33.65625-8.8285-9.35473-23.4215-9.35493-32.25 0l-4.0937 4.34375-4.1563-4.40625c-4.4143-4.67737-10.269-7-16.125-7zm0 5.875c4.2258 0 8.439 1.74163 11.75 5.25l6.3438 6.71875a3.0003 3.0003 0 004.3437 0l6.3125-6.6875c6.6221-7.01689 16.9093-7.01673 23.5313 0 6.6219 7.01673 6.6219 18.42075 0 25.4375-10.6809 11.3177-21.3504 22.6513-32.0313 33.9688l-32.0312-34.00005c-6.6182-7.02619-6.622-18.42093 0-25.4375 3.3109-3.50836 7.5554-5.25 11.7812-5.25z" overflow="visible" color="#000"/>
</svg>