<?xml version="1.0" standalone="no"?>
<!DOCTYPE svg PUBLIC "-//W3C//DTD SVG 20010904//EN"
 "http://www.w3.org/TR/2001/REC-SVG-20010904/DTD/svg10.dtd">
<svg version="1.0" xmlns="http://www.w3.org/2000/svg"
 width="700.000000pt" height="700.000000pt" viewBox="0 0 700.000000 700.000000"
 preserveAspectRatio="xMidYMid meet">

<g transform="translate(0.000000,700.000000) scale(0.100000,-0.100000)"
fill="#000000" stroke="none">
<path d="M731 5772 c-54 -21 -136 -92 -160 -141 -10 -20 -24 -59 -31 -88 -28
-120 42 -261 163 -325 l42 -23 2820 0 2820 0 40 22 c47 24 115 95 141 144 10
20 19 65 22 110 4 66 1 84 -20 131 -35 75 -79 122 -150 158 l-61 30 -2791 -1
c-2586 0 -2794 -2 -2835 -17z"/>
<path d="M1011 4405 c-214 -47 -409 -228 -500 -464 -53 -137 -52 -129 -49
-1091 l3 -895 28 -80 c79 -223 268 -428 449 -489 180 -60 415 -38 606 56 63
31 175 124 972 811 173 149 236 233 303 409 30 79 31 90 31 223 0 133 -1 144
-31 223 -40 103 -89 191 -145 259 -24 28 -193 181 -377 340 -184 158 -376 323
-425 367 -222 192 -273 230 -353 268 -150 70 -358 96 -512 63z m271 -617 c35
-29 117 -100 184 -158 121 -105 246 -214 548 -474 251 -216 246 -211 246 -273
0 -37 -5 -58 -18 -70 -49 -49 -997 -860 -1018 -871 -20 -11 -31 -9 -74 9 -99
42 -90 -48 -90 936 0 600 3 870 11 884 11 22 102 69 131 69 9 0 45 -24 80 -52z"/>
<path d="M3540 3872 c-65 -24 -150 -113 -174 -180 -49 -139 16 -300 148 -370
l51 -27 1405 0 1405 0 50 27 c66 35 108 80 141 152 23 51 26 67 22 136 -5 92
-32 145 -103 208 -88 77 24 72 -1519 71 -1266 0 -1385 -2 -1426 -17z"/>
<path d="M3599 1990 c-66 -11 -118 -41 -170 -97 -60 -64 -83 -131 -77 -223 8
-114 65 -194 176 -251 l47 -24 1390 0 c1132 0 1397 2 1428 13 58 21 129 83
162 143 27 49 30 63 30 144 0 74 -4 97 -23 132 -32 60 -86 111 -151 142 l-56
26 -1355 1 c-745 1 -1376 -2 -1401 -6z"/>
</g>
</svg>
