<?xml version="1.0" encoding="iso-8859-1"?>
<!-- Generator: Adobe Illustrator 19.0.0, SVG Export Plug-In . SVG Version: 6.00 Build 0)  -->
<svg version="1.1" id="Capa_1" xmlns="http://www.w3.org/2000/svg" xmlns:xlink="http://www.w3.org/1999/xlink" x="0px" y="0px"
	 viewBox="0 0 512 512" style="enable-background:new 0 0 512 512;" xml:space="preserve">
<g>
	<circle style="fill:#647892;" cx="256" cy="255.997" r="255.997"/>
	<circle style="fill:#647892;" cx="256" cy="255.997" r="255.997"/>
</g>
<path style="fill:#FC5B6F;" d="M352.667,126.487L352.667,126.487c-22.15-22.15-51.346-33.225-80.543-33.224
	c-29.197-0.001-58.393,11.074-80.543,33.224c-3.718,3.214-5.114,6.559-9.255,6.561c-4.14-0.002-5.523-3.335-9.254-6.561
	c-22.15-22.15-51.346-33.224-80.543-33.224c-13.489-0.001-26.977,2.369-39.772,7.097c-37.022,48.273-56.672,109.328-52.089,174
	c3.383,4.621,7.154,9.041,11.322,13.209c1.602,1.602,21.209,21.208,45.68,45.68v0.004c40.927,40.927,93.798,93.798,102.766,102.766
	c0.031,0.031,0.064,0.059,0.095,0.09c0.111,0.111,0.106,0.106,0.001,0.001c12.07,11.969,31.524,11.965,43.589-0.001
	c0.001,0,0,0,0.001-0.001c0.031-0.03,0.063-0.058,0.093-0.089c8.968-8.968,61.839-61.839,102.766-102.766v-0.004
	c24.472-24.473,44.08-44.079,45.68-45.68c13.016-13.016,22.203-28.468,27.57-44.92l0.005-0.002
	C393.671,200.758,382.497,156.294,352.667,126.487z"/>
<path style="fill:#F74352;" d="M212.851,405.531C212.851,405.53,212.851,405.531,212.851,405.531
	c-0.031-0.031-0.064-0.059-0.094-0.09c-8.968-8.968-61.839-61.839-102.767-102.766v-0.004c-24.472-24.473-44.079-44.079-45.68-45.68
	c-13.016-13.016-22.203-28.468-27.57-44.92l-0.005-0.001c-0.016-0.05-0.03-0.101-0.046-0.151
	c-13.103-40.375-2.99-84.485,26.484-114.834c-3.512,0.927-6.99,2.011-10.416,3.277C15.736,148.633-3.916,209.688,0.668,274.36
	c3.383,4.621,7.154,9.041,11.322,13.209c1.602,1.602,21.209,21.208,45.68,45.68v0.004c40.927,40.927,93.798,93.798,102.766,102.766
	c0.031,0.031,0.064,0.059,0.095,0.09c0.111,0.111,0.106,0.106,0.001,0.001c12.07,11.969,31.523,11.965,43.589-0.001
	c0.001,0,0,0,0.001-0.001c0.031-0.03,0.063-0.058,0.093-0.089c3.082-3.082,11.351-11.351,22.539-22.539
	C221.667,412.143,216.852,409.499,212.851,405.531z"/>
<g>
	<path style="fill:#FAC149;" d="M452.294,188.601h-27.407c-4.376,0-7.922-3.547-7.922-7.922c0-4.375,3.546-7.922,7.922-7.922h27.406
		c4.376,0,7.922,3.547,7.922,7.922C460.216,185.054,456.669,188.601,452.294,188.601z"/>
	<path style="fill:#FAC149;" d="M404.207,133.063c-2.188-3.789-0.889-8.634,2.9-10.821l23.735-13.703
		c3.788-2.188,8.635-0.89,10.821,2.899c2.188,3.789,0.889,8.634-2.9,10.821l-23.735,13.703
		C411.265,138.137,406.408,136.876,404.207,133.063z"/>
	<path style="fill:#FAC149;" d="M369.349,98.206c-3.789-2.187-5.087-7.032-2.899-10.821l13.703-23.735
		c2.187-3.789,7.03-5.088,10.821-2.9c3.789,2.187,5.087,7.032,2.899,10.821L380.17,95.306
		C377.981,99.1,373.134,100.391,369.349,98.206z"/>
</g>
<path style="fill:#68C4FC;" d="M303.571,324.03l176.007-57.751v-56.904c0-2.695-2.634-4.603-5.195-3.763l-167.558,54.979
	c-1.942,0.637-3.254,2.449-3.254,4.493V324.03z"/>
<g>
	<path style="fill:#48AEF9;" d="M342.93,248.745l-36.105,11.847c-1.942,0.637-3.254,2.45-3.254,4.493v58.946l39.359-12.915V248.745z
		"/>
	<path style="fill:#48AEF9;" d="M311.493,482.489c-4.376,0-7.922-3.547-7.922-7.922V292.322c0-4.375,3.546-7.922,7.922-7.922
		c4.376,0,7.922,3.547,7.922,7.922v182.247C319.415,478.943,315.869,482.489,311.493,482.489z"/>
</g>
<path style="fill:#68C4FC;" d="M471.656,422.429c-4.376,0-7.922-3.547-7.922-7.922V238.101c0-4.375,3.546-7.922,7.922-7.922
	c4.375,0,7.922,3.547,7.922,7.922v176.406C479.578,418.882,476.031,422.429,471.656,422.429z"/>
<circle style="fill:#48AEF9;" cx="281.989" cy="474.564" r="37.426"/>
<circle style="fill:#68C4FC;" cx="442.148" cy="414.505" r="37.426"/>
<path style="fill:#2D9EEA;" d="M281.989,474.568c-6.925-11.995-6.447-26.225,0.003-37.422c-6.362-0.007-12.81,1.6-18.716,5.009
	c-17.901,10.335-24.034,33.225-13.699,51.124c10.335,17.901,33.225,24.034,51.124,13.699c5.906-3.41,10.521-8.191,13.696-13.703
	C301.477,493.263,288.914,486.563,281.989,474.568z"/>
<path style="fill:#48AEF9;" d="M442.153,414.507c-6.925-11.995-6.447-26.225,0.002-37.422c-6.362-0.006-12.81,1.6-18.716,5.01
	c-17.901,10.335-24.034,33.224-13.699,51.124c10.335,17.9,33.224,24.034,51.124,13.699c5.906-3.41,10.521-8.191,13.697-13.704
	C461.64,433.203,449.077,426.502,442.153,414.507z"/>
<g>
	<circle style="fill:#F991A2;" cx="308.429" cy="155.938" r="23.05"/>
	<circle style="fill:#F991A2;" cx="269" cy="190.508" r="11.525"/>
</g>
<g>
</g>
<g>
</g>
<g>
</g>
<g>
</g>
<g>
</g>
<g>
</g>
<g>
</g>
<g>
</g>
<g>
</g>
<g>
</g>
<g>
</g>
<g>
</g>
<g>
</g>
<g>
</g>
<g>
</g>
</svg>
