<?xml version="1.0" encoding="UTF-8" standalone="no" ?>
<!DOCTYPE svg PUBLIC "-//W3C//DTD SVG 1.1//EN" "http://www.w3.org/Graphics/SVG/1.1/DTD/svg11.dtd">
<svg xmlns="http://www.w3.org/2000/svg" xmlns:xlink="http://www.w3.org/1999/xlink" version="1.1" width="1080" height="1080" viewBox="0 0 1080 1080" xml:space="preserve">
<desc>Created with Fabric.js 5.2.4</desc>
<defs>
</defs>
<g transform="matrix(1 0 0 1 540 540)" id="521ca50e-905b-4a9a-8e91-07218907e985"  >
<rect style="stroke: none; stroke-width: 1; stroke-dasharray: none; stroke-linecap: butt; stroke-dashoffset: 0; stroke-linejoin: miter; stroke-miterlimit: 4; fill: rgb(255,255,255); fill-rule: nonzero; opacity: 1; visibility: hidden;" vector-effect="non-scaling-stroke"  x="-540" y="-540" rx="0" ry="0" width="1080" height="1080" />
</g>
<g transform="matrix(1 0 0 1 540 540)" id="ae51e843-0691-48df-8ed5-1a092b0b9659"  >
</g>
<g transform="matrix(1 0 0 1 540.5 540.5)" id="576cf58c-a31c-450f-b4fd-7b634200c67f"  >
<path style="stroke: rgb(255,0,0); stroke-opacity: 0.61; stroke-width: 1; stroke-dasharray: none; stroke-linecap: butt; stroke-dashoffset: 0; stroke-linejoin: miter; stroke-miterlimit: 4; fill: rgb(255,0,0); fill-rule: nonzero; opacity: 1;" vector-effect="non-scaling-stroke"  transform=" translate(-8.47, -8.47)" d="M 5.5429688 1.72632 C 4.145628299999999 1.85425 3.2282466 2.26708 2.4121094 3.05831 L 2.4101594 3.05831 C 0.73840872 4.76006 0.73795173 7.46473 2.3457064 9.20089 C 2.3654964 9.251389999999999 2.3954084 9.297189999999999 2.4335974 9.33565 L 2.4355474 9.33565 L 8.1757817 15.089559999999999 C 8.3301456 15.244599999999998 8.5808622 15.245499999999998 8.7363286 15.09156 L 14.476562000000001 9.361089999999999 C 14.480962000000002 9.35709 14.485862000000001 9.35309 14.490232 9.34939 C 14.492232000000001 9.347389999999999 14.494232 9.34539 14.496132000000001 9.34339 C 14.505832000000002 9.334389999999999 14.515762 9.32509 14.525432 9.31599 C 14.529432 9.31199 14.533332 9.30799 14.537152 9.30429 C 16.246309 7.54812 16.214571 4.72911 14.466842000000002 3.0113199999999996 C 12.811194000000002 1.3848999999999996 10.219959000000001 1.3654299999999995 8.480513300000002 2.8433599999999997 C 7.633157300000002 2.1144 6.595756100000002 1.7144699999999997 5.543013300000002 1.7261699999999998 z M 5.552738799999999 2.51538 C 6.4875842 2.5049799999999998 7.4255184 2.85289 8.150395 3.55835 C 8.158585 3.56735 8.167679999999999 3.57485 8.175786 3.5837499999999998 C 8.180236 3.5887499999999997 8.184786 3.5927499999999997 8.189458 3.59745 C 8.217653 3.6255499999999996 8.249915 3.64925 8.285161 3.66775 C 8.308854 3.67995 8.333719 3.6897499999999996 8.35938 3.69705 C 8.378536 3.7030499999999997 8.398124 3.70765 8.417974 3.71075 C 8.424463999999999 3.71158 8.430978999999999 3.71175 8.437505 3.7127499999999998 C 8.450517802246159 3.71338999999362 8.46355419775384 3.71338999999362 8.476567 3.7127499999999998 C 8.489612999999999 3.7127299999999996 8.502649 3.7120599999999997 8.515628999999999 3.71075 C 8.528740999999998 3.70975 8.541777999999999 3.70775 8.554690999999998 3.70475 C 8.561250999999999 3.7027500000000004 8.567763999999999 3.70075 8.574221999999999 3.6987500000000004 C 8.580782 3.6967500000000006 8.587295 3.6947500000000004 8.593753 3.6927500000000006 C 8.599663 3.690750000000001 8.605519 3.6887500000000006 8.611331 3.686750000000001 C 8.617911 3.684750000000001 8.624424 3.681750000000001 8.630862 3.678750000000001 C 8.636782 3.6757500000000007 8.642646000000001 3.673750000000001 8.64844 3.670750000000001 C 8.654380000000002 3.6677500000000007 8.660245000000002 3.6637500000000007 8.666018000000001 3.660750000000001 L 8.671878000000001 3.656750000000001 C 8.675818000000001 3.6547500000000013 8.679728 3.652750000000001 8.683597 3.6507500000000013 C 8.684907 3.6497500000000014 8.686217000000001 3.647750000000001 8.687507 3.6467500000000013 C 8.6881593 3.6460900000000014 8.688807 3.6457500000000014 8.689457 3.6447500000000015 C 8.711867000000002 3.6306500000000015 8.732805 3.6142500000000015 8.751957 3.5959500000000015 C 10.178824 2.1723300000000014 12.474237 2.163920000000002 13.912113000000002 3.5764500000000017 C 15.354219000000002 4.993850000000002 15.379648000000001 7.296510000000001 13.970703000000002 8.746370000000002 C 13.970048000000002 8.747050000000002 13.969403000000002 8.747370000000002 13.968703000000001 8.748370000000003 C 13.959603000000001 8.757370000000003 13.950593000000001 8.765370000000003 13.941363 8.773770000000003 C 13.937363000000001 8.777770000000002 13.933463000000001 8.782770000000003 13.929643 8.787470000000003 C 13.921543 8.794470000000002 13.913683 8.802770000000002 13.906203 8.810870000000003 L 8.4569841 14.248370000000003 L 3.0194840999999997 8.799150000000003 C 3.0120441 8.790150000000002 3.0042240999999996 8.781850000000002 2.9960470999999997 8.773750000000003 C 1.5737803999999997 7.348190000000003 1.5640662999999997 5.055610000000003 2.9726090999999997 3.6175000000000033 C 2.9739291 3.6165000000000034 2.9751990999999998 3.614500000000003 2.9765190999999995 3.6135000000000033 L 2.9784690999999994 3.6135000000000033 C 3.687492099999999 2.8921100000000033 4.617842399999999 2.524280000000003 5.5526879 2.5138900000000035 z" stroke-linecap="round" />
</g>
</svg>