<!-- <svg xmlns="http://www.w3.org/2000/svg" viewBox="0 0 100 100"><path style="text-indent:0;text-transform:none;block-progression:tb" d="M50 6.00001c-24.2767 0-44.0000001 19.7233-44.0000001 44.00001 0 24.2767 19.7233001 44 44.0000001 44s44-19.7233 44-44C94 25.72331 74.2767 6.00001 50 6.00001zm0 4c22.1149 0 40 17.8851 40 40.00001 0 22.1149-17.8851 40-40 40s-40.0000001-17.8851-40.0000001-40C9.9999999 27.88511 27.8851 10.00001 50 10.00001zm-15 21v38.00001l34-19-34-19.00001z" overflow="visible" color="#000"/></svg> -->

<svg id="play" data-name="Lager 1" xmlns="http://www.w3.org/2000/svg" viewBox="0 0 177 177"><title>heart_icn</title><path d="M99.5,17A83.5,83.5,0,1,1,16,100.5,83.6,83.6,0,0,1,99.5,17m0-5A88.5,88.5,0,1,0,188,100.5,88.5,88.5,0,0,0,99.5,12Z" transform="translate(-11 -12)" /><polygon points="71 64.5 71 115.5 115 89.5 71 64.5" /></svg>